<?xml version="1.0" encoding="utf-8"?>
<!-- Generator: Adobe Illustrator 16.0.0, SVG Export Plug-In . SVG Version: 6.00 Build 0)  -->
<!DOCTYPE svg PUBLIC "-//W3C//DTD SVG 1.1//EN" "http://www.w3.org/Graphics/SVG/1.1/DTD/svg11.dtd">
<svg version="1.1" id="Layer_1" xmlns="http://www.w3.org/2000/svg" xmlns:xlink="http://www.w3.org/1999/xlink" x="0px" y="0px"
	 width="150px" height="150px" viewBox="0 0 150 150" enable-background="new 0 0 150 150" xml:space="preserve">
<g>
	<g>
		<path fill="#273C90" stroke="#273D8F" stroke-miterlimit="10" d="M20.188,105.231h3.672l5.773,13.142v-13.142h2.802v16.789
			l-3.705,0.004l-5.765-12.941v12.938h-2.778V105.231z"/>
		<path fill="#273C90" stroke="#273D8F" stroke-miterlimit="10" d="M39.465,105.231h3.382l5.483,16.813h-3.164l-1.233-4.059h-5.85
			l-1.289,4.062l-2.981-0.003L39.465,105.231z M38.778,115.688l4.507,0.002l-2.188-8.032L38.778,115.688z"/>
		<path fill="#273C90" stroke="#273D8F" stroke-miterlimit="10" d="M48.837,105.231h3.309l3.527,12.924l3.575-12.924h3.189
			l-5.242,16.789H53.91L48.837,105.231z"/>
		<path fill="#273C90" stroke="#273D8F" stroke-miterlimit="10" d="M63.814,105.231h3.092v16.789h-3.092V105.231z"/>
		<path fill="#273C90" stroke="#273D8F" stroke-miterlimit="10" d="M81.448,105.739l-0.193,2.633
			c-0.628-0.29-1.28-0.527-1.956-0.713c-0.678-0.185-1.313-0.277-1.909-0.277c-1.047,0-2.001,0.286-2.862,0.857
			c-0.862,0.572-1.461,1.401-1.8,2.488s-0.507,2.138-0.507,3.152c0,0.982,0.189,1.969,0.568,2.959
			c0.378,0.99,0.938,1.715,1.679,2.174s1.619,0.688,2.633,0.688c0.596,0,1.184-0.088,1.764-0.266v-4.493h-2.464v-2.367h5.532v8.793
			c-1.354,0.596-2.899,0.894-4.639,0.894c-0.902,0-1.771-0.101-2.609-0.302s-1.727-0.616-2.669-1.244
			c-0.942-0.628-1.679-1.554-2.21-2.777s-0.797-2.553-0.797-3.986c0-1.514,0.238-2.975,0.713-4.384
			c0.475-1.409,1.22-2.428,2.234-3.057c1.015-0.628,1.917-1.034,2.706-1.22c0.789-0.185,1.61-0.277,2.464-0.277
			c0.725,0,1.462,0.064,2.21,0.193C80.083,105.337,80.787,105.514,81.448,105.739z"/>
		<path fill="#273C90" stroke="#273D8F" stroke-miterlimit="10" d="M84.154,105.231h3.092v14.373h5.58v2.416h-8.672V105.231z"/>
		<path fill="#273C90" stroke="#273D8F" stroke-miterlimit="10" d="M100.967,105.038c2.303,0,4.006,0.83,5.109,2.488
			c1.102,1.659,1.654,3.704,1.654,6.136c0,2.657-0.54,4.755-1.619,6.293c-1.078,1.538-2.794,2.307-5.145,2.307
			c-2.319,0-4.022-0.769-5.109-2.307c-1.088-1.538-1.631-3.636-1.631-6.293c0-2.528,0.535-4.598,1.606-6.208
			S98.615,105.038,100.967,105.038z M97.391,113.662c0,1.691,0.254,3.157,0.762,4.396c0.508,1.24,1.445,1.86,2.814,1.86
			c1.385,0,2.322-0.612,2.814-1.836c0.49-1.224,0.736-2.697,0.736-4.421c0-1.658-0.246-3.12-0.736-4.384
			c-0.492-1.265-1.43-1.896-2.814-1.896c-1.369,0-2.307,0.637-2.814,1.908C97.645,110.563,97.391,112.02,97.391,113.662z"/>
		<path fill="#273C90" stroke="#273D8F" stroke-miterlimit="10" d="M109.445,105.231h4.3c1.224,0,2.238,0.081,3.044,0.242
			c0.805,0.162,1.408,0.529,1.812,1.103c0.402,0.574,0.668,1.107,0.797,1.6s0.193,0.973,0.193,1.441
			c0,0.518-0.089,1.018-0.266,1.502c-0.177,0.485-0.491,0.913-0.942,1.284c-0.451,0.372-0.982,0.663-1.594,0.873
			c0.772,0.257,1.396,0.567,1.871,0.93c0.476,0.362,0.798,0.817,0.967,1.364c0.17,0.548,0.254,1.071,0.254,1.57
			c0,0.564-0.061,1.107-0.182,1.631s-0.398,1.075-0.833,1.654c-0.435,0.58-1.075,0.991-1.921,1.232s-1.832,0.362-2.959,0.362h-4.541
			V105.231z M112.537,112.237h1.111c0.805,0,1.413-0.113,1.824-0.34c0.41-0.227,0.691-0.526,0.846-0.898
			c0.152-0.372,0.229-0.729,0.229-1.068c0-0.519-0.112-0.979-0.338-1.384c-0.273-0.405-0.616-0.672-1.027-0.802
			c-0.41-0.129-0.881-0.194-1.412-0.194h-1.232V112.237z M112.537,119.678h0.972c0.987,0,1.725-0.121,2.21-0.362
			c0.486-0.242,0.806-0.552,0.96-0.931c0.153-0.378,0.231-0.776,0.231-1.195c0-0.339-0.025-0.62-0.073-0.846
			c-0.049-0.226-0.194-0.523-0.438-0.894s-0.595-0.612-1.057-0.725s-1.089-0.169-1.882-0.169h-0.924V119.678z"/>
		<path fill="#273C90" stroke="#273D8F" stroke-miterlimit="10" d="M121.426,105.231h8.986v2.416h-5.895v4.518h5.58v2.392h-5.58
			v5.048h6.137v2.416h-9.229V105.231z"/>
	</g>
</g>
<g>
	<path fill="#273C90" stroke="#273D8F" stroke-miterlimit="10" d="M74.02,21.872c-20.164,0-36.481,16.317-36.481,36.481
		S53.856,94.836,74.02,94.836c20.166,0,36.481-16.318,36.481-36.483S94.186,21.872,74.02,21.872L74.02,21.872z M70.301,89.393
		c-6.897-0.799-13.268-3.977-18.312-8.895c-5.957-5.957-9.149-13.794-9.149-22.145c0-7.567,2.65-14.593,7.425-20.293
		c0.127,1.454,0.398,3.049,0.398,4.247c-0.271,4.119-0.669,6.769,1.724,10.346c0.926,1.326,1.197,3.321,1.597,4.903
		c0.398,1.596,2.251,2.394,3.448,3.319c2.523,1.995,4.902,4.119,7.567,5.843c1.725,1.055,2.921,1.726,2.394,3.848
		c-0.399,1.725-0.526,2.778-1.453,4.375c-0.271,0.527,1.054,3.448,1.453,3.978c1.326,1.324,2.651,2.521,4.119,3.719
		C73.75,84.361,71.242,86.74,70.301,89.393L70.301,89.393z M96.181,80.514c-4.518,4.518-10.074,7.424-16.189,8.621
		c0.928-2.123,2.394-4.119,3.848-5.174c1.197-0.926,2.779-2.777,3.449-4.246s1.454-2.779,2.395-4.12
		c1.196-1.852-3.05-4.773-4.519-5.441c-3.177-1.326-5.442-3.179-8.223-5.174c-1.995-1.453-5.971,0.669-8.222-0.271
		c-3.05-1.324-5.572-3.719-8.223-5.7c-2.778-2.124-2.65-4.518-2.65-7.567c2.124,0.129,5.173-0.527,6.626,1.198
		c0.399,0.527,1.995,3.049,3.05,2.123c0.797-0.67-0.671-3.578-0.926-4.247c-0.927-1.995,1.852-2.779,3.448-4.119
		c1.853-1.853,6.098-4.646,5.7-5.971c-0.271-1.325-4.118-5.044-6.369-4.375c-0.399,0.128-3.321,3.178-3.848,3.719
		c0-1.055,0-1.995,0-3.05c0-0.669-1.197-1.325-1.197-1.724c0.128-1.055,3.049-2.921,3.72-3.719
		c-0.527-0.271-2.251-1.724-2.779-1.596c-1.198,0.527-2.65,0.926-3.977,1.453c0-0.399,0-0.798-0.127-1.197
		c2.521-1.055,5.172-1.853,7.965-2.252l2.523,0.927l1.724,2.123l1.725,1.853l1.453,0.528l2.396-2.252l-0.67-1.596v-1.425
		c4.773,0.669,9.291,2.522,13.267,5.172c-0.67,0-1.454,0.128-2.394,0.271c-0.4-0.271-0.799-0.271-1.197-0.399
		c1.197,2.522,2.395,4.902,3.576,7.296c1.325,2.65,4.119,5.443,4.646,8.095c0.526,3.178,0.129,6.099,0.526,9.946
		c0.258,3.706,4.105,7.824,4.105,7.824s1.724,0.669,3.177,0.399C102.937,71.491,100.157,76.395,96.181,80.514L96.181,80.514z
		 M96.181,80.514"/>
</g>
</svg>
