<?xml version="1.0" encoding="utf-8"?>
<!-- Generator: Adobe Illustrator 16.0.0, SVG Export Plug-In . SVG Version: 6.00 Build 0)  -->
<!DOCTYPE svg PUBLIC "-//W3C//DTD SVG 1.1//EN" "http://www.w3.org/Graphics/SVG/1.1/DTD/svg11.dtd">
<svg version="1.1" id="Layer_2_copy_2" xmlns="http://www.w3.org/2000/svg" xmlns:xlink="http://www.w3.org/1999/xlink" x="0px"
	 y="0px" width="150px" height="150px" viewBox="0 0 150 150" enable-background="new 0 0 150 150" xml:space="preserve">
<g>
	<g>
		<path fill="#273C90" stroke="#273D8F" stroke-miterlimit="10" d="M27.178,105.231l4.621,0.006l3.557,12.448l3.453-12.458
			l4.65,0.004v16.789h-2.802v-13.914l-4.252,13.914h-2.198l-4.251-13.89v13.89h-2.778V105.231z"/>
		<path fill="#273C90" stroke="#273D8F" stroke-miterlimit="10" d="M50.344,105.231h3.382l5.483,16.813h-3.164l-1.233-4.059h-5.85
			l-1.289,4.062l-2.981-0.003L50.344,105.231z M49.657,115.688l4.507,0.002l-2.188-8.032L49.657,115.688z"/>
		<path fill="#273C90" stroke="#273D8F" stroke-miterlimit="10" d="M60.586,105.231h4.324c1.353,0,2.456,0.105,3.31,0.315
			s1.514,0.711,1.981,1.502c0.467,0.791,0.7,1.672,0.7,2.641c0,0.355-0.032,0.706-0.096,1.054c-0.065,0.348-0.202,0.715-0.411,1.103
			c-0.209,0.388-0.572,0.755-1.087,1.103c-0.516,0.347-1.031,0.585-1.546,0.714c0.628,0.242,1.059,0.544,1.292,0.906
			c0.233,0.362,0.495,0.994,0.785,1.896l1.908,5.556h-3.285l-1.305-4.203c-0.419-1.256-0.708-2.041-0.87-2.355
			c-0.161-0.313-0.507-0.515-1.039-0.604s-0.942-0.133-1.232-0.133h-0.338v7.295h-3.092V105.231z M63.678,112.454h1.256
			c0.757,0,1.341-0.125,1.751-0.376s0.692-0.559,0.845-0.922c0.153-0.364,0.229-0.757,0.229-1.178c0-0.534-0.097-0.971-0.29-1.312
			c-0.274-0.404-0.604-0.688-0.99-0.85c-0.387-0.161-0.894-0.242-1.522-0.242h-1.28V112.454z"/>
		<path fill="#273C90" stroke="#273D8F" stroke-miterlimit="10" d="M73.244,105.231h3.092v16.789h-3.092V105.231z"/>
		<path fill="#273C90" stroke="#273D8F" stroke-miterlimit="10" d="M78.051,105.231h10.701v2.416h-3.793v14.373h-3.116v-14.373
			h-3.792V105.231z"/>
		<path fill="#273C90" stroke="#273D8F" stroke-miterlimit="10" d="M90.273,105.231h3.092v16.789h-3.092V105.231z"/>
		<path fill="#273C90" stroke="#273D8F" stroke-miterlimit="10" d="M95.949,105.231l4.621,0.006l3.557,12.448l3.453-12.458
			l4.65,0.004v16.789h-2.802v-13.914l-4.252,13.914h-2.198l-4.251-13.89v13.89h-2.778V105.231z"/>
		<path fill="#273C90" stroke="#273D8F" stroke-miterlimit="10" d="M114.332,105.231h8.986v2.416h-5.895v4.518h5.58v2.392h-5.58
			v5.048h6.137v2.416h-9.229V105.231z"/>
		<path fill="#273C90" stroke="#273D8F" stroke-miterlimit="10" d="M15.221,127.643l-0.169,2.488
			c-0.58-0.226-1.131-0.411-1.655-0.556c-0.523-0.146-1.019-0.218-1.485-0.218c-0.628,0-1.12,0.125-1.474,0.375
			c-0.354,0.249-0.604,0.531-0.749,0.845c-0.145,0.314-0.217,0.648-0.217,1.003c0,0.645,0.197,1.104,0.592,1.377
			s0.979,0.628,1.751,1.063l0.628,0.314c1.385,0.789,2.339,1.521,2.863,2.198c0.523,0.676,0.785,1.603,0.785,2.777
			c0,0.758-0.198,1.538-0.592,2.344c-0.395,0.806-0.89,1.381-1.486,1.727c-0.596,0.347-1.171,0.58-1.727,0.701
			s-1.156,0.181-1.8,0.181c-0.645,0-1.316-0.06-2.017-0.181s-1.341-0.278-1.92-0.472l0.145-2.753
			c0.531,0.273,1.123,0.519,1.775,0.736s1.244,0.326,1.775,0.326c0.612,0,1.119-0.137,1.522-0.411
			c0.402-0.273,0.68-0.587,0.833-0.941c0.153-0.354,0.229-0.749,0.229-1.184c0-0.451-0.145-0.87-0.435-1.257
			c-0.29-0.386-0.942-0.845-1.957-1.377l-0.604-0.338c-1.337-0.677-2.267-1.336-2.79-1.98s-0.785-1.53-0.785-2.657
			c0-0.773,0.161-1.518,0.483-2.234c0.322-0.717,0.793-1.252,1.413-1.606c0.62-0.354,1.196-0.592,1.727-0.713
			c0.532-0.121,1.079-0.182,1.643-0.182c0.628,0,1.248,0.053,1.86,0.157C13.997,127.301,14.608,127.449,15.221,127.643z"/>
		<path fill="#273C90" stroke="#273D8F" stroke-miterlimit="10" d="M24.23,127.038c2.303,0,4.006,0.83,5.109,2.488
			c1.103,1.659,1.654,3.704,1.654,6.136c0,2.657-0.54,4.755-1.618,6.293c-1.079,1.538-2.794,2.307-5.146,2.307
			c-2.319,0-4.022-0.769-5.109-2.307c-1.087-1.538-1.631-3.636-1.631-6.293c0-2.528,0.535-4.598,1.606-6.208
			C20.168,127.844,21.879,127.038,24.23,127.038z M20.655,135.662c0,1.691,0.254,3.157,0.761,4.396
			c0.507,1.24,1.445,1.86,2.814,1.86c1.385,0,2.323-0.612,2.814-1.836c0.491-1.224,0.737-2.697,0.737-4.421
			c0-1.658-0.246-3.12-0.737-4.384c-0.492-1.265-1.43-1.896-2.814-1.896c-1.369,0-2.307,0.637-2.814,1.908
			C20.909,132.563,20.655,134.02,20.655,135.662z"/>
		<path fill="#273C90" stroke="#273D8F" stroke-miterlimit="10" d="M43.652,127.69l-0.145,2.682
			c-0.516-0.258-1.071-0.471-1.667-0.64c-0.596-0.17-1.159-0.254-1.691-0.254c-0.837,0-1.671,0.262-2.5,0.785
			c-0.83,0.523-1.397,1.28-1.703,2.271c-0.306,0.99-0.459,2.13-0.459,3.418c0,1.015,0.193,1.985,0.58,2.911
			c0.387,0.926,0.986,1.627,1.8,2.102c0.813,0.475,1.614,0.713,2.404,0.713c0.547,0,1.079-0.073,1.594-0.218
			c0.515-0.145,1.087-0.362,1.715-0.652l0.145,2.802c-1.127,0.436-2.359,0.652-3.696,0.652c-0.87,0-1.699-0.108-2.488-0.326
			c-0.789-0.217-1.651-0.676-2.584-1.377c-0.934-0.7-1.619-1.803-2.053-3.309c-0.435-1.506-0.652-3.023-0.652-4.554
			c0-1.191,0.286-2.416,0.857-3.672c0.571-1.256,1.316-2.158,2.234-2.706c0.918-0.547,1.707-0.897,2.368-1.051
			c0.66-0.152,1.36-0.229,2.102-0.229C41.1,127.038,42.38,127.256,43.652,127.69z"/>
		<path fill="#273C90" stroke="#273D8F" stroke-miterlimit="10" d="M45.512,127.231h3.092v16.789h-3.092V127.231z"/>
		<path fill="#273C90" stroke="#273D8F" stroke-miterlimit="10" d="M55.971,127.231h3.382l5.483,16.813h-3.164l-1.233-4.059h-5.85
			l-1.289,4.062l-2.981-0.003L55.971,127.231z M55.285,137.688l4.507,0.002l-2.188-8.032L55.285,137.688z"/>
		<path fill="#273C90" stroke="#273D8F" stroke-miterlimit="10" d="M66.214,127.231h3.092v14.373h5.58v2.416h-8.672V127.231z"/>
		<path fill="#273C90" stroke="#273D8F" stroke-miterlimit="10" d="M81.384,127.231l4.62,0.006l3.558,12.448l3.453-12.458
			l4.65,0.004v16.789h-2.802v-13.914l-4.252,13.914h-2.199l-4.25-13.89v13.89h-2.778V127.231z"/>
		<path fill="#273C90" stroke="#273D8F" stroke-miterlimit="10" d="M99.767,127.231h8.985v2.416h-5.894v4.518h5.58v2.392h-5.58
			v5.048h6.136v2.416h-9.228V127.231z"/>
		<path fill="#273C90" stroke="#273D8F" stroke-miterlimit="10" d="M110.879,127.231h3.672c1.787,0,3.301,0.206,4.541,0.617
			c1.24,0.412,2.166,1.146,2.777,2.201c0.612,1.057,1.023,2.037,1.232,2.939c0.209,0.903,0.314,1.822,0.314,2.758
			c0,1.839-0.411,3.468-1.232,4.887s-1.869,2.339-3.141,2.758s-2.898,0.629-4.879,0.629h-3.285V127.231z M113.971,141.653h0.459
			c0.611,0,1.103-0.021,1.473-0.061c0.371-0.04,0.846-0.174,1.426-0.399s1.091-0.601,1.533-1.125
			c0.443-0.525,0.758-1.11,0.943-1.756c0.185-0.646,0.277-1.5,0.277-2.565c0-0.92-0.072-1.738-0.218-2.456
			c-0.145-0.719-0.471-1.416-0.978-2.094c-0.508-0.679-1.156-1.114-1.945-1.308s-1.779-0.29-2.971-0.29V141.653z"/>
		<path fill="#273C90" stroke="#273D8F" stroke-miterlimit="10" d="M125.179,127.231h3.092v16.789h-3.092V127.231z"/>
		<path fill="#273C90" stroke="#273D8F" stroke-miterlimit="10" d="M135.637,127.231h3.383l5.482,16.813h-3.164l-1.232-4.059h-5.852
			l-1.287,4.062l-2.981-0.003L135.637,127.231z M134.951,137.688l4.506,0.002l-2.188-8.032L134.951,137.688z"/>
	</g>
</g>
<g transform="translate(0.000000,150.000000) scale(0.100000,-0.100000)">
	<path fill="#273C90" d="M460.264,1332.217c-9.878-11.191-11.191-36.86-11.191-236.978V870.767l59.897,61.88l60.562,62.534H735.42
		c152.061,0,166.543,0.659,176.416,11.851c9.873,10.532,11.191,32.256,11.191,163.911c0,138.237-1.318,152.061-11.846,161.934
		c-11.191,9.878-36.211,11.191-226.45,11.191C485.933,1344.067,470.137,1343.408,460.264,1332.217z M863.779,1172.915v-111.909
		H707.773H551.758l-18.428-17.769l-18.433-17.773v129.678v129.678h174.443h174.438V1172.915z"/>
	<path fill="#273C90" d="M955.937,1176.211v-29.624h29.629h29.619v-128.364v-127.71l-16.455,15.801l-15.801,16.46H824.287H666.299
		v19.746c0,19.092-1.318,19.751-29.619,19.751h-29.624v-38.179c0-61.885-3.95-60.566,184.976-60.566h160.615l63.857-63.853
		l64.512-64.517v228.428c0,264.624,7.236,242.246-75.049,242.246h-50.029V1176.211z"/>
	<path fill="#273C90" d="M606.401,752.935c-33.579-16.46-107.964-30.278-138.237-26.333c-19.092,2.637-19.092,2.637-19.092-29.619
		v-32.91l61.216,3.291c39.497,2.627,72.407,8.555,95.449,17.773l34.233,13.818l34.888-14.482
		c47.397-19.746,131.655-19.746,181.685,0l34.893,13.828l34.229-13.828c21.719-8.555,55.293-14.482,94.795-17.109l60.557-3.291
		v32.91c0,32.256,0,32.256-19.102,29.619c-30.264-4.6-105.977,9.873-139.541,26.997l-30.938,15.132l-32.266-16.455
		c-26.982-14.482-40.146-17.119-90.83-17.119c-49.375,0-65.181,2.637-95.454,16.46l-36.206,16.46L606.401,752.935z"/>
	<path fill="#273C90" d="M603.765,608.779c-26.982-14.482-44.106-17.783-93.477-20.41l-61.216-2.637v-29.619v-29.619l64.507,2.637
		c35.552,1.963,77.676,7.891,94.795,14.482c29.619,10.527,32.915,10.527,65.825-0.664c46.738-15.801,134.951-15.801,181.689,0
		c32.91,11.191,36.201,11.191,65.82,0.664c17.119-6.592,59.248-12.519,95.449-14.482l63.857-2.637v28.965v29.619l-61.221,3.291
		c-51.348,2.627-67.803,6.582-94.795,21.064l-32.91,18.428l-35.547-18.428c-30.938-15.801-42.783-18.438-91.504-18.438
		c-48.047,0-60.562,2.637-90.181,17.783c-19.087,9.873-35.547,17.773-36.206,17.773
		C637.334,625.889,622.197,617.988,603.765,608.779z"/>
</g>
</svg>
