<?xml version="1.0" encoding="utf-8"?>
<!-- Generator: Adobe Illustrator 16.0.0, SVG Export Plug-In . SVG Version: 6.00 Build 0)  -->
<!DOCTYPE svg PUBLIC "-//W3C//DTD SVG 1.1//EN" "http://www.w3.org/Graphics/SVG/1.1/DTD/svg11.dtd">
<svg version="1.1" xmlns="http://www.w3.org/2000/svg" xmlns:xlink="http://www.w3.org/1999/xlink" x="0px" y="0px" width="150px"
	 height="150px" viewBox="0 0 150 150" enable-background="new 0 0 150 150" xml:space="preserve">
<g id="Layer_1">
	<g>
		
			<text transform="matrix(1 0 0 1 14.7344 122.0205)" fill="#273C90" stroke="#273D8F" stroke-miterlimit="10" font-family="'CarlosNoeight'" font-size="24.1564">NAVIGLOBE</text>
	</g>
	<g>
		<path fill="#273C90" stroke="#273D8F" stroke-miterlimit="10" d="M74.672,21.872c-20.164,0-36.481,16.317-36.481,36.481
			s16.317,36.483,36.481,36.483c20.165,0,36.48-16.318,36.48-36.483S94.837,21.872,74.672,21.872L74.672,21.872z M70.953,89.393
			c-6.897-0.799-13.268-3.977-18.312-8.895c-5.957-5.957-9.149-13.794-9.149-22.145c0-7.567,2.65-14.593,7.425-20.293
			c0.127,1.454,0.398,3.049,0.398,4.247c-0.271,4.119-0.669,6.769,1.724,10.346c0.926,1.326,1.197,3.321,1.597,4.903
			c0.398,1.596,2.251,2.394,3.448,3.319c2.523,1.995,4.902,4.119,7.567,5.843c1.725,1.055,2.921,1.726,2.394,3.848
			c-0.399,1.725-0.526,2.778-1.453,4.375c-0.271,0.527,1.054,3.448,1.453,3.978c1.326,1.324,2.651,2.521,4.119,3.719
			C74.401,84.361,71.894,86.74,70.953,89.393L70.953,89.393z M96.832,80.514c-4.518,4.518-10.074,7.424-16.189,8.621
			c0.928-2.123,2.394-4.119,3.848-5.174c1.197-0.926,2.779-2.777,3.449-4.246s1.454-2.779,2.395-4.12
			c1.196-1.852-3.05-4.773-4.519-5.441c-3.177-1.326-5.442-3.179-8.222-5.174c-1.995-1.453-5.972,0.669-8.223-0.271
			c-3.05-1.324-5.572-3.719-8.223-5.7c-2.778-2.124-2.65-4.518-2.65-7.567c2.124,0.129,5.173-0.527,6.626,1.198
			c0.399,0.527,1.995,3.049,3.05,2.123c0.797-0.67-0.671-3.578-0.926-4.247c-0.927-1.995,1.852-2.779,3.448-4.119
			c1.853-1.853,6.099-4.646,5.7-5.971c-0.271-1.325-4.118-5.044-6.37-4.375c-0.399,0.128-3.321,3.178-3.848,3.719
			c0-1.055,0-1.995,0-3.05c0-0.669-1.197-1.325-1.197-1.724c0.128-1.055,3.049-2.921,3.72-3.719
			c-0.527-0.271-2.251-1.724-2.779-1.596c-1.198,0.527-2.65,0.926-3.977,1.453c0-0.399,0-0.798-0.127-1.197
			c2.521-1.055,5.172-1.853,7.965-2.252l2.523,0.927l1.724,2.123l1.725,1.853l1.454,0.528l2.395-2.252l-0.67-1.596v-1.425
			c4.773,0.669,9.291,2.522,13.267,5.172c-0.67,0-1.454,0.128-2.394,0.271c-0.4-0.271-0.799-0.271-1.197-0.399
			c1.197,2.522,2.395,4.902,3.576,7.296c1.325,2.65,4.119,5.443,4.646,8.095c0.526,3.178,0.129,6.099,0.526,9.946
			c0.258,3.706,4.105,7.824,4.105,7.824s1.724,0.669,3.177,0.399C103.588,71.491,100.809,76.395,96.832,80.514L96.832,80.514z
			 M96.832,80.514"/>
	</g>
</g>
<g id="Layer_2" display="none">
	<g display="inline">
		
			<text transform="matrix(1 0 0 1 30.2236 122.0205)" fill="#273C90" stroke="#273D8F" stroke-miterlimit="10" font-family="'CarlosNoeight'" font-size="24.1564">NAVIFIND</text>
	</g>
	<g display="inline">
		<path fill="#273C90" d="M57.623,22.564c-13.899,0-24.94,11.041-24.94,24.94c0,13.899,11.041,24.94,24.94,24.94
			c6.142,0,11.71-2.19,16.033-5.79l1.781,1.781v2.895l22.49,22.491l6.013-6.013l-22.491-22.49h-3.116l-1.672-1.67
			c3.656-4.343,5.902-9.944,5.902-16.145C82.563,33.605,71.521,22.564,57.623,22.564L57.623,22.564z M57.623,29.69
			c9.986,0,17.814,7.829,17.814,17.814c0,9.983-7.828,17.814-17.814,17.814c-9.986,0-17.814-7.831-17.814-17.814
			C39.809,37.519,47.637,29.69,57.623,29.69L57.623,29.69z M57.623,29.69"/>
	</g>
</g>
</svg>
