<?xml version="1.0" encoding="utf-8"?>
<!-- Generator: Adobe Illustrator 16.0.0, SVG Export Plug-In . SVG Version: 6.00 Build 0)  -->
<!DOCTYPE svg PUBLIC "-//W3C//DTD SVG 1.1//EN" "http://www.w3.org/Graphics/SVG/1.1/DTD/svg11.dtd">
<svg version="1.1" id="Layer_2_copy" xmlns="http://www.w3.org/2000/svg" xmlns:xlink="http://www.w3.org/1999/xlink" x="0px"
	 y="0px" width="150px" height="150px" viewBox="0 0 150 150" enable-background="new 0 0 150 150" xml:space="preserve">
<g>
	<g>
		<path fill="#273C90" stroke="#273D8F" stroke-miterlimit="10" d="M44.259,105.739l-0.193,2.633
			c-0.628-0.29-1.28-0.527-1.957-0.713c-0.677-0.185-1.313-0.277-1.909-0.277c-1.047,0-2.001,0.286-2.862,0.857
			c-0.862,0.572-1.461,1.401-1.8,2.488s-0.507,2.138-0.507,3.152c0,0.982,0.189,1.969,0.568,2.959
			c0.378,0.99,0.938,1.715,1.679,2.174s1.619,0.688,2.633,0.688c0.595,0,1.184-0.088,1.763-0.266v-4.493H39.21v-2.367h5.532v8.793
			c-1.353,0.596-2.899,0.894-4.638,0.894c-0.902,0-1.771-0.101-2.609-0.302s-1.727-0.616-2.669-1.244
			c-0.942-0.628-1.679-1.554-2.21-2.777s-0.797-2.553-0.797-3.986c0-1.514,0.238-2.975,0.713-4.384
			c0.475-1.409,1.22-2.428,2.234-3.057c1.015-0.628,1.917-1.034,2.706-1.22c0.789-0.185,1.61-0.277,2.464-0.277
			c0.725,0,1.461,0.064,2.21,0.193C42.894,105.337,43.598,105.514,44.259,105.739z"/>
		<path fill="#273C90" stroke="#273D8F" stroke-miterlimit="10" d="M46.964,105.231h8.986v2.416h-5.894v4.518h5.58v2.392h-5.58
			v5.048h6.136v2.416h-9.228V105.231z"/>
		<path fill="#273C90" stroke="#273D8F" stroke-miterlimit="10" d="M57.206,105.231h10.701v2.416h-3.792v14.373h-3.116v-14.373
			h-3.792V105.231z"/>
		<path fill="#273C90" stroke="#273D8F" stroke-miterlimit="10" d="M69.429,105.231h3.092v16.789h-3.092V105.231z"/>
		<path fill="#273C90" stroke="#273D8F" stroke-miterlimit="10" d="M75.105,105.231h3.672l5.773,13.142v-13.142h2.802v16.789
			l-3.704,0.004l-5.766-12.941v12.938h-2.777V105.231z"/>
		<path fill="#273C90" stroke="#273D8F" stroke-miterlimit="10" d="M88.729,105.231h10.701v2.416h-3.792v14.373h-3.117v-14.373
			h-3.792V105.231z"/>
		<path fill="#273C90" stroke="#273D8F" stroke-miterlimit="10" d="M100.952,105.231h8.985v2.416h-5.894v4.518h5.58v2.392h-5.58
			v5.048h6.136v2.416h-9.228V105.231z"/>
		<path fill="#273C90" stroke="#273D8F" stroke-miterlimit="10" d="M112.064,105.231h3.092v14.373h5.58v2.416h-8.672V105.231z"/>
		<path fill="#273C90" stroke="#273D8F" stroke-miterlimit="10" d="M122.62,105.231h3.116l-0.41,11.813h-2.295L122.62,105.231z
			 M122.74,118.88h2.899v3.141h-2.899V118.88z"/>
	</g>
</g>
<g>
	<path fill="#273C90" d="M67.939,88.658v6.026c-15.57,0-28.126-12.723-28.126-28.125h6.027
		C45.841,78.613,55.718,88.658,67.939,88.658z M57.894,66.56h-6.027c0,8.872,7.199,16.072,16.072,16.072v-6.027
		C62.247,76.604,57.894,72.083,57.894,66.56z M114.313,79.784L101.59,92.509c-2.344,2.344-6.194,2.344-8.538,0L81.667,81.125
		c-2.344-2.345-2.344-6.195,0-8.539l5.023-5.022l-2.847-2.846l-5.022,5.022c-2.344,2.344-6.194,2.344-8.538,0l-5.692-5.692
		c-2.345-2.344-2.345-6.194,0-8.538l5.022-5.022l-2.846-2.846l-5.022,5.023c-2.344,2.344-6.195,2.344-8.539,0L41.823,41.28
		c-2.344-2.344-2.344-6.195,0-8.539l12.891-12.724c2.344-2.344,6.194-2.344,8.538,0l11.385,11.384c2.344,2.344,2.344,6.194,0,8.538
		l-5.023,5.022l2.846,2.847l5.023-5.023c2.344-2.344,6.194-2.344,8.538,0l5.691,5.692c2.345,2.344,2.345,6.194,0,8.539l-5.021,5.022
		l2.846,2.846l5.021-5.022c2.345-2.344,6.195-2.344,8.539,0l11.384,11.384C116.657,73.59,116.657,77.274,114.313,79.784z
		 M63.084,28.556l-4.186-4.185L46.175,37.094l4.185,4.186L63.084,28.556z M70.283,35.587l-4.186-4.186L53.374,44.125l4.186,4.186
		L70.283,35.587z M87.359,52.664l-5.692-5.693L68.944,59.863l5.692,5.692L87.359,52.664z M102.929,68.401l-4.185-4.185
		L86.021,76.938l4.186,4.187L102.929,68.401z M110.128,75.432l-4.353-4.185L93.052,83.971l4.186,4.185L110.128,75.432z"/>
</g>
</svg>
