<?xml version="1.0" encoding="utf-8"?>
<!-- Generator: Adobe Illustrator 16.0.0, SVG Export Plug-In . SVG Version: 6.00 Build 0)  -->
<!DOCTYPE svg PUBLIC "-//W3C//DTD SVG 1.1//EN" "http://www.w3.org/Graphics/SVG/1.1/DTD/svg11.dtd">
<svg version="1.1" id="Layer_1" xmlns="http://www.w3.org/2000/svg" xmlns:xlink="http://www.w3.org/1999/xlink" x="0px" y="0px"
	 width="150px" height="150px" viewBox="0 0 150 150" enable-background="new 0 0 150 150" xml:space="preserve">
<g>
	
		<text transform="matrix(1 0 0 1 24.9712 122.0205)" fill="#273C90" stroke="#273D8F" stroke-miterlimit="10" font-family="'CarlosNoeight'" font-size="24.1564">NAVIFIND</text>
</g>
<g>
	<path fill="#273C90" stroke="#273D8F" stroke-width="2" stroke-miterlimit="10" d="M57.623,22.564
		c-13.899,0-24.94,11.041-24.94,24.94c0,13.899,11.041,24.94,24.94,24.94c6.142,0,11.71-2.19,16.033-5.79l1.781,1.781v2.895
		l22.49,22.491l6.013-6.013l-22.491-22.49h-3.116l-1.672-1.67c3.656-4.343,5.902-9.944,5.902-16.145
		C82.563,33.605,71.521,22.564,57.623,22.564L57.623,22.564z M57.623,29.69c9.986,0,17.814,7.829,17.814,17.814
		c0,9.983-7.828,17.814-17.814,17.814c-9.986,0-17.814-7.831-17.814-17.814C39.809,37.519,47.637,29.69,57.623,29.69L57.623,29.69z
		 M57.623,29.69"/>
</g>
</svg>
